<?xml version="1.0" encoding="UTF-8"?>
<svg id="Layer_1" data-name="Layer 1" xmlns="http://www.w3.org/2000/svg" viewBox="0 0 1117.09 1117.09">
  <defs>
    <style>
      .cls-1 {
        fill: #e11375;
      }

      .cls-2 {
        fill: #e01173;
      }

      .cls-3 {
        fill: #e01274;
      }

      .cls-4 {
        fill: #e01174;
      }

      .cls-5 {
        fill: #e11979;
      }

      .cls-6 {
        fill: #e01375;
      }

      .cls-7 {
        fill: #fff;
      }

      .cls-8 {
        fill: #e11576;
      }

      .cls-9 {
        fill: #e21c7a;
      }
    </style>
  </defs>
  <path class="cls-7" d="M1117.09,0v1117.09H0V0h1117.09ZM562.36,139.5h-17.98c-6.07,0-5.45-4.42-7.67-7.59-9.46-13.45-28.68-4.31-26.42,11.12,2.66,18.19,26.37,17.64,29.91-.32l22.17,1.14v74.11c-74.26-1.52-148.63.38-222.92-1.04-2.58-.05-4.96-1.12-7.54-1.18-11.94-.29-23.94.25-35.89.11-7.03-27.93-41.28-6.9-25.76,12.49,8.27,10.33,23.56,3.8,25.81-8.25l266.29,2.23v68.66l-240.19-1.02c-2.12-14.7-20.67-20.31-27.37-5.53-8.43,18.58,20.01,30.7,27.25,9.82h240.31v66.48l-230.33-1.04c-2.67-10.5-13.12-19.89-23.12-11.01-16.49,14.66,11.88,39.76,21.48,15.49l231.97.92v55.58l-433.09-2.11c-1.8-12.4-17.82-20.51-26.83-10.43-12.37,13.82,9.03,36.33,23.99,18.54,2.05-2.44.02-4.36,4.84-4.97,14.71-1.89,31.1,1.02,45.78,1.2,118.76,1.5,237.81-1.31,356.39,2.17,9.62.28,19.31-.3,28.93-.04v23.43c0,.74,2.46,2.3,3.65,1.49,10.14-12.59,25.94-16.24,41.27-11.54,4.87,1.49,11.36,7.91,16.17,3.28,1.32-1.27,5.24-9.11,6.67-11.57,32-55.25,38.53-100.84,34.74-164.81-3.54-59.72-38.11-116.98-71.53-164.96-12.34-17.72-29.28-32.46-27.7-56.76-3.51-.43-4.04.55-4.41,3.75-.86,7.39,1.03,14.9,1.19,21.81.56,23.41-.51,46.93-.04,70.34ZM852.25,141.69c-.62-.7-8.48,4.87-10.14,5.65-48.68,23-112.59,37.76-157.36,67.15-8.44,5.54-1.76,7.84,1.27,15.5,13.17,33.29,6.14,83.3-2.1,117.71-3.69,15.4-9.79,29.53-13.66,44.64,1.51.09,2.09.33,3.31-.74,1.96-1.71,4.3-5.61,7.07-7.95,33.07-27.93,92.5-48.4,135.25-53.29,4.17-.48,15.14,1.16,17.28-2.34,2.99-19.25,9.02-40.05,10.36-59.39,1.78-25.69-.09-53.62,1.06-79.59.42-9.62.68-24.23,2.7-33.26,1.27-5.65,4.72-8.8,4.96-14.1ZM1032.09,389.08c-6.54.48-12.22-.25-18.54-1.63-26.06-5.67-53.73-16.65-80.41-23.12-80.03-19.42-127.42-26.3-201.49,15.84-36.48,20.76-67.96,47.5-95.06,79.42-.57,2.15,3.7,6.16,5.03,8.82,5.72,11.48,2.9,17.86.31,29.65,13.21,2.19,23.97,14.68,30,26.14,7.71,14.67,7.97,25.17-.48,39.69.91,3.92,24.43,7.52,28.93,8.15,30.51,4.27,73.69,5.02,104.48,2.3,53.11-4.69,115.45-49.85,148.75-89.93,18.65-22.44,48.66-73.29,69.85-88.18,3.36-2.36,9.67-2.7,8.65-7.15ZM609.92,464.66c-13.88-13.91-35.24-4.4-38.42,13.85l-363.17-.24c-5.28-20.83-34.22-12.35-26.84,7.78,5.25,14.3,24.71,11.46,27.33-3.31l363.35.06c-.73,18.07,19.27,30.56,34.8,20.1,12.43-8.38,13.31-27.85,2.95-38.23ZM562.36,544.92v19.07c0,4.37,8.66,1.01,10.79-.11,22.04-11.56,16.7-46.89-9.7-46.22l-1.08,22.9-318.61,1.13c-5.4-27.08-41.5-11.11-25.78,9.21,6.86,8.86,21.23,6.15,24.14-4.73l320.25-1.26ZM623.11,519.03c-16.79,2.89-21.97,24.58-12.79,37.33,15.62,21.69,49.03,7.08,41.76-21.05-3.25-12.58-17-18.35-28.97-16.28ZM1031.96,689.99c-8.94-.88-14.29-7.13-20.05-13.18-32.21-33.9-57.97-75.58-90.96-109.57-2.34-2.41-7.73-8.5-10.64-9.08-3.54-.7-8.83,5.34-12.63,7.65-52.35,31.94-91.03,32.38-150.59,33.7-2.11.05-3.94-.98-5.98-1.19l1.07,4.91c32.87,21.85,64.49,52.02,85.47,85.64,8.5,13.62,17.32,29.61,19.16,45.69,23.56-3.49,47.42-7.35,70.64-12.74,32.99-7.66,69.71-21.76,102.59-27.1,4.05-.66,7.99-.55,12.05-.49l-.13-4.23ZM170.12,611.51c134.75-.08,269.71-.83,404.22,1.53,15.76,28.36,55.58,8.4,43.79-21.99-10.91-28.13-52.27-11.61-45.95,17.09l-402.18-1.62c-6.56-17.65-29.83-11.63-25.88,7.37,3.11,14.93,25.2,13.36,26.01-2.37ZM574.35,687.69H125.33c-2.44-15.47-23.73-15.6-26.08-.48-3.14,20.21,23.93,25.99,26.71,4.77l449.37.18c9.61,60.48,39.72,123.39,86.19,163.92,26.38,23,62.69,36.78,95.36,48.5,31.34,11.24,65.53,17.9,92.65,38.14,1.14.02-2.56-20.16-2.7-22.36-4.22-66.01,3.06-135.74-29.25-196.35-27.04-50.73-98.19-126.04-156.02-138.23-6.76-1.43-13.03-2.27-20.02-1.47-4.14,1.35-.58,12.31-.66,15.6-.53,22.89-17.27,44.85-40.92,46.35-11,.7-17.7-3.31-27.77-5.43l2.17,46.87ZM562.36,769.43v58.85h-267.01c0-12.2-16.22-17.95-24-8.2-8.85,11.08,2.1,26.55,16.32,21.77,4.41-1.48,7.56-9.21,8.22-9.21h266.47v57.76h-62.12c-1.13-22.33-33.33-15.91-26.21,4.96,4.34,12.7,21.53,11.77,25.84-.65l62.49-1.04v52.86l-1.63,1.63h-21.25c-3.06-21.34-37.27-15.61-28.23,6.98,3.82,9.53,17.37,12.55,24.85,5.45,3.07-2.92,2.74-6.1,5.02-9.15h21.25v81.19c0,1.17,3.14,2.08,4.35,1.64,2.86-21.94,19.09-42.63,31.37-60.73,16.54-24.38,37.02-48.46,50.94-74.39,1.71-3.18,10.57-21.43,10.39-23.44s-11.54-8.57-14.24-10.9c-16.26-14.04-38.72-44.35-50.57-62.77-14.48-22.52-24.34-45.21-29.04-71.79l-3.3.59c-2.39,11.13,1.43,22.81.1,34.24l-240.15,2.23c-3.49-16.75-28.15-20.3-28.05-.6.08,16.65,23.37,21.22,28.06,3.77l240.13-1.05Z"/>
  <path class="cls-3" d="M574.35,687.69l-2.17-46.87c10.07,2.12,16.77,6.13,27.77,5.43,23.66-1.5,40.39-23.46,40.92-46.35.08-3.29-3.48-14.25.66-15.6,6.99-.8,13.26.05,20.02,1.47,57.83,12.2,128.98,87.51,156.02,138.23,32.31,60.61,25.03,130.34,29.25,196.35.14,2.2,3.84,22.39,2.7,22.36-27.11-20.23-61.3-26.89-92.65-38.14-32.67-11.72-68.98-25.5-95.36-48.5-46.48-40.53-76.59-103.45-86.19-163.92l-449.37-.18c-2.77,21.22-29.84,15.44-26.71-4.77,2.35-15.12,23.65-14.99,26.08.48h449.02Z"/>
  <path class="cls-2" d="M1032.09,389.08c1.02,4.45-5.29,4.79-8.65,7.15-21.19,14.89-51.2,65.74-69.85,88.18-33.3,40.07-95.64,85.23-148.75,89.93-30.79,2.72-73.97,1.97-104.48-2.3-4.5-.63-28.02-4.23-28.93-8.15,8.45-14.52,8.19-25.02.48-39.69-6.03-11.46-16.79-23.95-30-26.14,2.59-11.79,5.41-18.17-.31-29.65-1.32-2.65-5.59-6.67-5.03-8.82,27.11-31.92,58.58-58.66,95.06-79.42,74.07-42.14,121.46-35.27,201.49-15.84,26.68,6.48,54.35,17.45,80.41,23.12,6.32,1.38,12.01,2.11,18.54,1.63Z"/>
  <path class="cls-1" d="M562.36,139.5c-.46-23.41.6-46.93.04-70.34-.16-6.9-2.05-14.42-1.19-21.81.37-3.2.9-4.19,4.41-3.75-1.58,24.3,15.36,39.04,27.7,56.76,33.42,47.98,67.99,105.25,71.53,164.96,3.79,63.97-2.74,109.56-34.74,164.81-1.43,2.46-5.35,10.3-6.67,11.57-4.81,4.63-11.3-1.78-16.17-3.28-15.33-4.7-31.13-1.05-41.27,11.54-1.19.81-3.65-.75-3.65-1.49v-23.43c-9.61-.26-19.31.33-28.93.04-118.57-3.48-237.63-.67-356.39-2.17-14.69-.19-31.07-3.09-45.78-1.2-4.81.62-2.78,2.53-4.84,4.97-14.96,17.79-36.36-4.72-23.99-18.54,9.01-10.08,25.03-1.97,26.83,10.43l433.09,2.11v-55.58l-231.97-.92c-9.59,24.27-37.97-.83-21.48-15.49,10-8.89,20.45.5,23.12,11.01l230.33,1.04v-66.48h-240.31c-7.24,20.88-35.68,8.77-27.25-9.82,6.7-14.79,25.25-9.17,27.37,5.53l240.19,1.02v-68.66l-266.29-2.23c-2.25,12.05-17.54,18.58-25.81,8.25-15.52-19.39,18.72-40.42,25.76-12.49,11.94.14,23.95-.4,35.89-.11,2.58.06,4.96,1.13,7.54,1.18,74.29,1.42,148.66-.47,222.92,1.04v-74.11l-22.17-1.14c-3.54,17.96-27.25,18.51-29.91.32-2.25-15.43,16.96-24.57,26.42-11.12,2.23,3.16,1.61,7.59,7.67,7.59h17.98Z"/>
  <path class="cls-4" d="M852.25,141.69c-.24,5.3-3.7,8.45-4.96,14.1-2.03,9.03-2.28,23.64-2.7,33.26-1.15,25.97.72,53.89-1.06,79.59-1.34,19.35-7.37,40.15-10.36,59.39-2.14,3.5-13.11,1.86-17.28,2.34-42.75,4.89-102.19,25.36-135.25,53.29-2.77,2.34-5.11,6.24-7.07,7.95-1.22,1.07-1.8.83-3.31.74,3.87-15.11,9.97-29.24,13.66-44.64,8.24-34.41,15.28-84.42,2.1-117.71-3.03-7.66-9.71-9.96-1.27-15.5,44.77-29.39,108.68-44.15,157.36-67.15,1.65-.78,9.52-6.36,10.14-5.65Z"/>
  <path class="cls-4" d="M1031.96,689.99l.13,4.23c-4.06-.06-8-.16-12.05.49-32.88,5.34-69.6,19.44-102.59,27.1-23.22,5.39-47.08,9.25-70.64,12.74-1.84-16.08-10.66-32.07-19.16-45.69-20.98-33.62-52.6-63.79-85.47-85.64l-1.07-4.91c2.03.2,3.87,1.24,5.98,1.19,59.56-1.32,98.25-1.76,150.59-33.7,3.8-2.32,9.1-8.36,12.63-7.65,2.91.58,8.31,6.67,10.64,9.08,32.99,34,58.74,75.67,90.96,109.57,5.76,6.06,11.11,12.31,20.05,13.18Z"/>
  <path class="cls-8" d="M562.36,769.43l-240.13,1.05c-4.69,17.45-27.98,12.88-28.06-3.77-.1-19.7,24.56-16.15,28.05.6l240.15-2.23c1.32-11.43-2.49-23.12-.1-34.24l3.3-.59c4.7,26.59,14.55,49.27,29.04,71.79,11.85,18.42,34.31,48.73,50.57,62.77,2.7,2.33,14.06,8.92,14.24,10.9s-8.68,20.26-10.39,23.44c-13.92,25.93-34.4,50.01-50.94,74.39-12.28,18.1-28.51,38.8-31.37,60.73-1.21.44-4.35-.47-4.35-1.64v-81.19h-21.25c-2.28,3.06-1.94,6.24-5.02,9.15-7.48,7.1-21.03,4.09-24.85-5.45-9.04-22.59,25.17-28.31,28.23-6.98h21.25l1.63-1.63v-52.86l-62.49,1.04c-4.31,12.42-21.51,13.35-25.84.65-7.12-20.87,25.08-27.29,26.21-4.96h62.12v-57.76h-266.47c-.67,0-3.81,7.73-8.22,9.21-14.22,4.78-25.18-10.69-16.32-21.77,7.79-9.75,24-4,24,8.2h267.01v-58.85Z"/>
  <path class="cls-8" d="M170.12,611.51c-.81,15.73-22.9,17.31-26.01,2.37-3.95-19,19.32-25.02,25.88-7.37l402.18,1.62c-6.31-28.69,35.04-45.21,45.95-17.09,11.79,30.39-28.02,50.35-43.79,21.99-134.51-2.37-269.47-1.61-404.22-1.53Z"/>
  <path class="cls-5" d="M609.92,464.66c10.36,10.38,9.48,29.85-2.95,38.23-15.53,10.47-35.53-2.02-34.8-20.1l-363.35-.06c-2.62,14.77-22.08,17.61-27.33,3.31-7.39-20.12,21.56-28.6,26.84-7.78l363.17.24c3.18-18.25,24.54-27.76,38.42-13.85Z"/>
  <path class="cls-9" d="M562.36,544.92l-320.25,1.26c-2.91,10.87-17.28,13.59-24.14,4.73-15.72-20.32,20.38-36.29,25.78-9.21l318.61-1.13,1.08-22.9c26.4-.67,31.74,34.65,9.7,46.22-2.13,1.12-10.79,4.48-10.79.11v-19.07Z"/>
  <path class="cls-6" d="M623.11,519.03c11.97-2.06,25.71,3.71,28.97,16.28,7.28,28.13-26.14,42.74-41.76,21.05-9.18-12.75-4-34.44,12.79-37.33Z"/>
</svg>