<?xml version="1.0" encoding="UTF-8"?>
<svg id="Layer_1" data-name="Layer 1" xmlns="http://www.w3.org/2000/svg" viewBox="0 0 810 810">
  <defs>
    <style>
      .cls-1 {
        fill: #fff;
      }
    </style>
  </defs>
  <path class="cls-1" d="M810,0v810H0V0h810ZM407.25,267.75v15.38l1.86,1.12c6.24-7.67,15.61-10.51,25.17-7.9,2.98.81,7.27,4.22,9.96,3.31s18.16-32.59,19.83-37.2c10.09-27.89,10.22-74.51,2.96-103.1-5.23-20.6-26.1-55.29-38.6-73.15-8.64-12.34-20.48-22.34-19.68-39.2-3.64,3.63-1.49,9.77-1.46,13.84.1,15.88-.14,31.79-.03,47.66-.53.53-13.98-.33-14.88-.88-.26-.16-1.07-2.96-1.75-3.88-7.86-10.66-20.81.62-14.47,10.72,4.57,7.27,16.05,4.15,16.09-4.47h13.88l1.12,1.12v46.88l-167.63-1.49c-2.2-.13-1.76-2.63-2.72-4.03-3.34-4.88-9.16-6.19-13.43-1.63-9.06,9.66,5.51,23.53,13.43,11.93,1.4-2.05-.04-3.63,3.44-4.06,15.27-1.91,36.76.7,52.51.83,38.14.3,76.39-.72,114.41.71v43.5h-152.25c-1.78-13.88-20.57-10.98-16.89,3.02,2.3,8.77,14.55,7.2,16.88-1.16,16.03-.52,32.31-.54,48.42-.39,1.95.02,3.79.8,5.93.82,32.63.27,65.29-.27,97.91-.04v42h-145.88c-1.83-2.23-.71-4.34-2.97-6.78-4.21-4.56-11.95-3.1-13.55,3.01-3.1,11.8,11.42,17.02,15.89,5.24l146.5.78v36c-4.62-.13-9.28.17-13.91.03-85.77-2.54-172.1-.38-258.01-1.49-3.36-.07-2.86-4.55-5.41-6.8-5.7-5.04-15.17-2.57-15.24,5.63-.09,11.35,15.19,13.63,18.19,2.75l.97-.18c61.23,1.32,122.51.36,183.82.77,2.14.01,3.98.8,5.93.82,27.88.2,55.78-.21,83.66-.03ZM590.25,90c-1.23-.3-1.74.25-2.64.73-21.34,11.4-45.37,18.01-67.62,27.63-4.51,1.95-36.45,17.01-37.39,18.88-1.23,2.45,1.37,4.42,2.26,6.76,9.18,24.12,4.38,59.01-2.66,83.57-.82,2.87-7.66,18.86-6.7,19.92,1.3.34,1.5-.54,2.25-1.12,3.05-2.34,5.58-5.58,9.08-8.17,19.59-14.51,54.22-26.77,78.38-29.62,3.12-.37,10.95.91,12.63-1.62,1.04-1.56,3.38-16.14,3.94-19.31,5.25-29.99.73-58.97,4.91-88.09.53-3.67,2.66-6.17,3.55-9.57ZM703.5,246c-3.99.28-7.53-.14-11.4-.98-12.23-2.66-25.7-8.11-38.1-11.4-48.26-12.8-85.95-21.98-132.5,2.5-25.91,13.63-48.79,32.35-67.7,54.6,6.18,7.11,7.11,14.31,3.77,23.1.32,1.22,3.37,1.33,4.69,2.04,10.1,5.48,19.02,19.31,17.74,31.01-.45,4.14-2.91,5.96-3.81,9.67.29,1.76,17.2,4.49,20.03,4.86,25.11,3.29,68.28,4.12,91.3-6.01,25.06-11.03,47.22-26.75,64.96-47.54,12.14-14.23,31.58-47.48,44.52-57.09.67-.5,8.09-3.36,6.5-4.76ZM413.22,304.54c1.04,21.37,30.8,19.53,27.72-2.6-1.82-13.05-19.25-17.12-25.73-4.87-.67,1.27-1.62,5.76-2.44,5.96h-229.3c-1.5-6.92-9.17-11.64-14.74-5.69-10.3,11,10.8,24.19,14.74,7.11l229.76.08ZM408,327.75v13.5l-202.82,1.54c-.55-8.68-11.79-13.82-16.33-5.07-5.78,11.15,11.51,19.89,15.87,6.87,67.47-.21,135.17-.98,202.58-.77l.62,12.73c2.91,1.56,6.02-.48,8.27-2.25,10.86-8.57,6.49-27.47-8.18-26.56ZM459.49,331.76c-14.09-13.14-34.35,7.41-20.4,21.52s35.15-7.76,20.4-21.52ZM703.5,435.75c-1.47.14-2.73-.23-4.06-.83-6.65-2.96-24.67-26.34-30.42-33.33-11.55-14.04-21.84-28.68-34.5-42-1.44-1.51-6.41-6.86-8.03-7-10.9,7.23-23.48,14.2-35.86,18.66-20.85,7.5-46.77,8.05-68.81,7.23-.58-.02-1.78-.75-2.07.64s20.43,14.83,22.51,17.98c19.03,18.67,39.42,40.15,44.99,67.14,16.32-3.48,33.01-5.65,49.22-9.65,19.91-4.92,40.88-12.43,60.99-16.26,2.03-.39,4-.43,6.04-.34v-2.24ZM414.6,386.41c8.11,16.41,31.09,8.99,28.58-9.47-1.73-12.69-18.23-16.75-26.18-6.81-3.38,4.22-3.12,8.25-3.1,13.4l-1.77,1.23c-9.01-.13-18.03.16-27.03.03-1.96-.03-3.79-.79-5.93-.82-73.35-.9-146.9,1.04-220.19-.31-4.3-11.79-18.4-7.59-15.4,4.9,2.01,8.36,15.08,6.68,15.78-2.33,1.58-1.67,3.99.18,5.99.06l249.26.12ZM415.5,435H131.62c-6.33-17.33-24.9-.94-13.82,8.57,6.25,5.36,12.62-.48,13.93-7.1l283.28.89c1.53.5,1.77,7.58,2.22,9.78,7.57,37.66,31.81,80.87,64.33,102.17,26.28,17.22,57.72,22.76,86.16,34.59,7.22,3,15.23,6.39,21.02,11.6-3.69-14.38-1.6-29.25-2.21-43.91-.92-22.25-3.25-54.44-10.18-75.32-12.71-38.28-64.59-95.76-104.44-105.56-5.01-1.23-10.84-2.43-15.82-.89,1.58,10.76-.26,20.71-6.96,29.42s-17.73,11.17-27.64,8.39c-2.67-.75-4.71-2.58-7.48-2.64.08,10.02-.6,20.14,1.5,30ZM407.25,462.38c-1.31,5.15.97,15.6,0,21.38l-152.54.8c-2.62-13.36-21.73-9.22-15.83,3.71,3.38,7.42,14.21,7.16,15.83-1.55,9.72-.09,19.48.28,29.2.08,1.97-.04,3.79-.78,5.93-.82,39.11-.67,78.3.58,117.41.04v37.5h-168.38c-1.73-5.9-6.89-10.96-13.09-7.09-12.49,7.8,6.05,25.79,12.69,8.88.51-.41,1.01.46,1.15.46h167.62v36.75l-38.53.65c-1.64-.56-1.21-6.84-6.33-8.66-13.57-4.82-16.02,18.18-1.32,16.21,4.68-.63,6.14-5.95,6.8-5.95h39.38v34.5h-13.88c-2.44-3.3-2.96-7.1-7.67-8.07-12.45-2.57-15.39,12.53-6.21,16.7,6.99,3.17,11.57-.71,13.88-7.13h13.88v46.88c0,.31.62,3.45.77,4.49.18,1.33-.38,1.25,1.48,1.13,1.61-13.06,11.29-25.73,18.59-36.54,13.96-20.7,31.26-39.83,39.98-63.6l-.16-1.01c-10.41-5.19-18.89-16.18-26.14-25.24-15.52-19.4-28.89-40.62-33.03-65.6-.25-.19-1.42.85-1.49,1.12ZM207.57,685.7c-27.7,3.77-20.17,50.12,9.44,37.19,18.04-7.88,14.47-40.45-9.44-37.19ZM701.25,724.49l-17.62-38.98-17.62,38.98,2.88-.12,3.79-9.92,17.61-.34c4.08,5,2.12,12.38,10.98,10.39ZM135.75,686.25h-22.5v38.25h5.25v-18.38l1.12-1.12h11.62v-1.5h-12.75v-13.88c5.18-3.93,11.39-.04,17.25-.38v-3ZM159,686.25h-6v38.25h20.62l1.12-3.75c-4.87.75-11.39,3.11-15.74.37v-34.88ZM263.62,686.25c-4.87-.69-11.09.5-16.12,0v38.25h5.25v-17.62c1.28-1.62,4.09-1.66,5.62-.37l12.5,18.65,6.63-.67-14.99-18.38c-.25-1.64.26-.88,1.09-1.13,3.29-.99,6.73-1.38,8.56-4.96,3.52-6.9-1.68-12.81-8.53-13.78ZM319.5,686.25h-22.5v38.25h22.5l.75-3.74-18,1.49v-17.25h12.75v-1.5h-12.75v-15c6.06-1.53,11.2.86,17.25.75v-3ZM356.24,717l-13.09-30.02-6.4-.72,17.99,38.99,15.01-38.99-3.16,1.71-10.35,29.03ZM411,686.25h-23.25v38.25h23.25v-3.75s-18,1.5-18,1.5v-16.12l1.12-1.12h12.38v-1.5h-12.38l-1.12-1.12v-12.75c3.13-4.43,15.85,1.39,17.67-1.09l.33-2.29ZM448.88,686.25c-4.69-.78-11.21.57-16.12,0v38.25h5.25v-18.75c1.69.02,3.41-.4,4.93.7,3.28,2.37,10.41,17.07,13.08,18.47l5.98-.42-14.98-18.37c5.89-2.33,13.2-5.09,10.74-13-.95-3.05-5.9-6.38-8.88-6.87ZM488.92,686.34l-5.92-.09-1.49,38.26h2.24s1.51-31.5,1.51-31.5l14.61,31.49,15.01-33c1.67-.66,1.07,1.74,1.12,2.62.22,3.98.31,29.48,1.61,30.28l5.15.11-2.25-38.26-5.9.11-12.11,29.15-13.57-29.16ZM567.75,686.25h-22.5v38.25h22.5l.75-3.75-18,1.5v-17.25h12.75v-1.5h-12.75v-13.88c4.88-3.54,11.75-.6,17.24.37v-3.75ZM589.5,724.5h15.38c1.05,0,5.79-1.38,7.11-1.89,14.45-5.51,14.45-26.82,1.26-33.49-1.42-.72-7.15-2.87-8.38-2.87h-15.38v38.25ZM648,686.25h-5.25v38.25h5.25v-38.25Z"/>
  <path d="M415.5,435c-2.1-9.86-1.41-19.97-1.5-30,2.77.06,4.81,1.89,7.48,2.64,9.9,2.77,21.27-.12,27.64-8.39,6.71-8.71,8.54-18.66,6.96-29.42,4.98-1.54,10.81-.34,15.82.89,39.86,9.8,91.73,67.28,104.44,105.56,6.93,20.88,9.26,53.06,10.18,75.32.61,14.66-1.48,29.52,2.21,43.91-5.79-5.21-13.79-8.6-21.02-11.6-28.44-11.83-59.89-17.37-86.16-34.59-32.52-21.3-56.75-64.52-64.33-102.17-.44-2.2-.69-9.28-2.22-9.78l-283.28-.89c-1.31,6.62-7.68,12.47-13.93,7.1-11.08-9.51,7.49-25.9,13.82-8.57h283.88Z"/>
  <path d="M703.5,246c1.6,1.4-5.82,4.26-6.5,4.76-12.95,9.61-32.38,42.86-44.52,57.09-17.74,20.79-39.9,36.51-64.96,47.54-23.02,10.13-66.19,9.31-91.3,6.01-2.82-.37-19.73-3.1-20.03-4.86.9-3.71,3.36-5.53,3.81-9.67,1.28-11.7-7.64-25.53-17.74-31.01-1.32-.71-4.37-.82-4.69-2.04,3.34-8.79,2.41-15.99-3.77-23.1,18.91-22.25,41.78-40.98,67.7-54.6,46.55-24.48,84.24-15.3,132.5-2.5,12.4,3.29,25.86,8.74,38.1,11.4,3.87.84,7.41,1.26,11.4.98Z"/>
  <path d="M407.25,267.75c-27.87-.18-55.78.23-83.66.03-1.95-.01-3.79-.8-5.93-.82-61.3-.41-122.59.55-183.82-.77l-.97.18c-2.99,10.88-18.28,8.6-18.19-2.75.07-8.2,9.55-10.67,15.24-5.63,2.54,2.25,2.05,6.73,5.41,6.8,85.91,1.11,172.24-1.05,258.01,1.49,4.62.14,9.29-.16,13.91-.03v-36l-146.5-.78c-4.47,11.78-18.99,6.56-15.89-5.24,1.6-6.11,9.34-7.57,13.55-3.01,2.25,2.44,1.14,4.55,2.97,6.78h145.88v-42c-32.62-.24-65.28.3-97.91.04-2.14-.02-3.98-.8-5.93-.82-16.11-.15-32.39-.13-48.42.39-2.33,8.36-14.58,9.93-16.88,1.16-3.68-14,15.11-16.9,16.89-3.02h152.25v-43.5c-38.03-1.43-76.27-.41-114.41-.71-15.75-.13-37.24-2.74-52.51-.83-3.48.44-2.04,2.01-3.44,4.06-7.92,11.6-22.49-2.27-13.43-11.93,4.27-4.55,10.09-3.25,13.43,1.63.95,1.4.52,3.9,2.72,4.03l167.63,1.49v-46.88l-1.12-1.12h-13.88c-.04,8.62-11.53,11.74-16.09,4.47-6.34-10.1,6.61-21.38,14.47-10.72.67.91,1.49,3.72,1.75,3.88.9.55,14.35,1.41,14.88.88-.12-15.87.13-31.78.03-47.66-.03-4.08-2.18-10.22,1.46-13.84-.8,16.85,11.04,26.86,19.68,39.2,12.51,17.86,33.37,52.54,38.6,73.15,7.26,28.6,7.14,75.21-2.96,103.1-1.67,4.61-17.2,36.31-19.83,37.2s-6.99-2.5-9.96-3.31c-9.56-2.61-18.93.23-25.17,7.9l-1.86-1.12v-15.38Z"/>
  <path d="M590.25,90c-.89,3.4-3.02,5.9-3.55,9.57-4.19,29.12.33,58.09-4.91,88.09-.56,3.17-2.9,17.75-3.94,19.31-1.68,2.53-9.51,1.25-12.63,1.62-24.17,2.85-58.8,15.11-78.38,29.62-3.49,2.59-6.02,5.83-9.08,8.17-.75.58-.95,1.45-2.25,1.12-.96-1.06,5.88-17.05,6.7-19.92,7.04-24.56,11.84-59.45,2.66-83.57-.89-2.34-3.49-4.31-2.26-6.76.94-1.88,32.88-16.93,37.39-18.88,22.25-9.62,46.28-16.23,67.62-27.63.9-.48,1.41-1.03,2.64-.73Z"/>
  <path d="M703.5,435.75v2.24c-2.05-.09-4.01-.05-6.04.34-20.11,3.83-41.08,11.35-60.99,16.26-16.21,4-32.9,6.17-49.22,9.65-5.58-26.99-25.96-48.46-44.99-67.14-2.08-3.15-22.8-16.57-22.51-17.98s1.49-.66,2.07-.64c22.04.81,47.96.26,68.81-7.23,12.38-4.45,24.95-11.43,35.86-18.66,1.62.14,6.59,5.49,8.03,7,12.66,13.31,22.95,27.95,34.5,42,5.75,6.99,23.78,30.36,30.42,33.33,1.33.59,2.59.97,4.06.83Z"/>
  <path d="M407.25,462.38c.07-.27,1.24-1.31,1.49-1.12,4.14,24.99,17.51,46.21,33.03,65.6,7.24,9.05,15.72,20.05,26.14,25.24l.16,1.01c-8.72,23.78-26.02,42.91-39.98,63.6-7.3,10.82-16.97,23.49-18.59,36.54-1.86.12-1.3.19-1.48-1.13-.14-1.05-.77-4.18-.77-4.49v-46.88h-13.88c-2.31,6.42-6.89,10.3-13.88,7.13-9.18-4.17-6.23-19.27,6.21-16.7,4.71.97,5.23,4.78,7.67,8.07h13.88v-34.5h-39.38c-.66,0-2.12,5.33-6.8,5.95-14.71,1.97-12.25-21.02,1.32-16.21,5.12,1.82,4.7,8.09,6.33,8.66l38.53-.65v-36.75h-167.62c-.14,0-.64-.86-1.15-.46-6.64,16.91-25.18-1.08-12.69-8.88,6.2-3.87,11.36,1.19,13.09,7.09h168.38v-37.5c-39.11.54-78.3-.71-117.41-.04-2.14.04-3.97.78-5.93.82-9.72.2-19.48-.17-29.2-.08-1.62,8.71-12.45,8.98-15.83,1.55-5.89-12.93,13.21-17.07,15.83-3.71l152.54-.8c.97-5.78-1.31-16.23,0-21.38Z"/>
  <path d="M414.6,386.41l-249.26-.12c-2,.12-4.41-1.73-5.99-.06-.7,9-13.77,10.68-15.78,2.33-3-12.49,11.1-16.69,15.4-4.9,73.29,1.35,146.83-.59,220.19.31,2.14.03,3.97.79,5.93.82,9.01.13,18.03-.16,27.03-.03l1.77-1.23c-.01-5.15-.27-9.18,3.1-13.4,7.96-9.94,24.46-5.88,26.18,6.81,2.51,18.46-20.47,25.88-28.58,9.47Z"/>
  <path d="M413.22,304.54l-229.76-.08c-3.94,17.08-25.04,3.89-14.74-7.11,5.57-5.95,13.24-1.23,14.74,5.7h229.3c.82-.21,1.77-4.7,2.44-5.97,6.49-12.26,23.92-8.19,25.73,4.87,3.08,22.13-26.67,23.96-27.72,2.6Z"/>
  <path d="M408,327.75c14.67-.91,19.04,17.99,8.18,26.56-2.25,1.78-5.36,3.81-8.27,2.25l-.62-12.73c-67.4-.21-135.1.56-202.58.77-4.36,13.01-21.65,4.28-15.87-6.87,4.54-8.75,15.77-3.62,16.33,5.07l202.82-1.54v-13.5Z"/>
  <path d="M459.49,331.76c14.76,13.76-6.24,35.84-20.4,21.52s6.31-34.66,20.4-21.52Z"/>
  <path d="M488.92,686.34l13.57,29.16,12.11-29.15,5.9-.11,2.25,38.26-5.15-.11c-1.29-.8-1.39-26.3-1.61-30.28-.05-.89.56-3.28-1.12-2.62l-15.01,33-14.61-31.49-1.51,31.5h-2.24s1.49-38.26,1.49-38.26l5.92.09Z"/>
  <path d="M589.5,724.5v-38.25h15.38c1.22,0,6.95,2.15,8.38,2.87,13.19,6.68,13.18,27.98-1.26,33.49-1.32.5-6.07,1.89-7.11,1.89h-15.38ZM595.5,722.25c12.11,2.53,21.84-3.96,21.82-16.87-.02-11.01-11.06-22.02-21.82-15.75v32.62Z"/>
  <path d="M207.57,685.7c23.92-3.26,27.49,29.32,9.44,37.19-29.62,12.93-37.15-33.42-9.44-37.19ZM206.78,687.91c-12.42,2.84-14.43,29.5-2.55,34.49,22.27,9.34,24.92-39.6,2.55-34.49Z"/>
  <path d="M263.62,686.25c6.85.97,12.05,6.88,8.53,13.78-1.83,3.58-5.26,3.96-8.56,4.96-.83.25-1.34-.52-1.09,1.13l14.99,18.38-6.63.67-12.5-18.65c-1.53-1.29-4.34-1.26-5.62.37v17.62h-5.25v-38.25c5.04.5,11.26-.69,16.12,0ZM252.75,704.25c19.31,4.19,20.08-20.14,1.27-15.61l-1.27.99v14.62Z"/>
  <path d="M448.88,686.25c2.98.49,7.93,3.82,8.88,6.87,2.46,7.91-4.85,10.67-10.74,13l14.98,18.37-5.98.42c-2.68-1.41-9.8-16.1-13.08-18.47-1.52-1.1-3.24-.67-4.93-.7v18.75h-5.25v-38.25c4.92.57,11.43-.78,16.12,0ZM438,704.25c20.59,4.36,17.82-22.55,0-14.62v14.62Z"/>
  <path d="M701.25,724.49c-8.85,1.99-6.89-5.39-10.98-10.39l-17.61.34-3.79,9.92-2.88.12,17.62-38.98,17.62,38.98ZM689.25,711.75l-6.76-18.75c-3.89,5.47-5.73,12.55-8.24,18.75h15Z"/>
  <path d="M411,686.25l-.33,2.29c-1.82,2.48-14.54-3.35-17.67,1.09v12.75l1.12,1.12h12.38v1.5h-12.38l-1.12,1.12v16.12l18-1.5v3.75s-23.25,0-23.25,0v-38.25h23.25Z"/>
  <path d="M567.75,686.25v3.75c-5.5-.97-12.37-3.92-17.25-.37v13.88h12.75v1.5h-12.75v17.25l18-1.5-.75,3.75h-22.5v-38.25h22.5Z"/>
  <path d="M319.5,686.25v3c-6.05.11-11.19-2.28-17.25-.75v15h12.75v1.5h-12.75v17.25l18-1.49-.75,3.74h-22.5v-38.25h22.5Z"/>
  <path d="M159,686.25v34.88c4.36,2.74,10.88.37,15.74-.37l-1.12,3.75h-20.62v-38.25h6Z"/>
  <polygon points="356.24 717 366.59 687.96 369.75 686.25 354.74 725.25 336.75 686.26 343.15 686.98 356.24 717"/>
  <path d="M135.75,686.25v3c-5.86.34-12.07-3.55-17.25.38v13.88h12.75v1.5h-11.62l-1.12,1.12v18.38h-5.25v-38.25h22.5Z"/>
  <rect x="642.75" y="686.25" width="5.25" height="38.25"/>
  <path class="cls-1" d="M595.5,722.25v-32.62c10.75-6.27,21.79,4.74,21.82,15.75.03,12.92-9.7,19.41-21.82,16.87Z"/>
  <path class="cls-1" d="M206.78,687.91c22.37-5.11,19.71,43.82-2.55,34.49-11.88-4.98-9.86-31.65,2.55-34.49Z"/>
  <path class="cls-1" d="M252.75,704.25v-14.62l1.27-.99c18.82-4.53,18.04,19.8-1.27,15.61Z"/>
  <path class="cls-1" d="M438,704.25v-14.62c17.82-7.93,20.59,18.99,0,14.62Z"/>
  <path class="cls-1" d="M689.25,711.75h-15c2.51-6.19,4.35-13.28,8.24-18.75l6.76,18.75Z"/>
</svg>